<svg width="95" height="26" viewBox="0 0 95 26" fill="none" xmlns="http://www.w3.org/2000/svg">
<mask id="path-1-outside-1_2_71" maskUnits="userSpaceOnUse" x="19" y="5" width="76" height="16" fill="black">
<rect fill="white" x="19" y="5" width="76" height="16"/>
<path d="M25.14 20.24C24.1533 20.24 23.2867 20.06 22.54 19.7C21.8067 19.34 21.2267 18.8267 20.8 18.16C20.3867 17.4933 20.1733 16.7 20.16 15.78H22.4C22.4133 16.4867 22.6533 17.0933 23.12 17.6C23.6 18.0933 24.2667 18.34 25.12 18.34C25.9067 18.34 26.52 18.16 26.96 17.8C27.4 17.4267 27.62 16.9467 27.62 16.36C27.62 15.8667 27.4867 15.46 27.22 15.14C26.9667 14.8067 26.5667 14.5133 26.02 14.26C25.4733 13.9933 24.7667 13.72 23.9 13.44C22.74 13.0667 21.8867 12.5533 21.34 11.9C20.7933 11.2333 20.52 10.42 20.52 9.46C20.52 8.35333 20.92 7.46 21.72 6.78C22.52 6.1 23.62 5.76 25.02 5.76C26.38 5.76 27.4733 6.11333 28.3 6.82C29.1267 7.51333 29.5533 8.48 29.58 9.72H27.32C27.32 9.38667 27.2267 9.06667 27.04 8.76C26.8533 8.44 26.5867 8.18 26.24 7.98C25.8933 7.76667 25.4667 7.66 24.96 7.66C24.3333 7.64667 23.8067 7.8 23.38 8.12C22.9533 8.42667 22.74 8.84667 22.74 9.38C22.74 10.0333 23 10.5467 23.52 10.92C24.04 11.28 24.8867 11.6533 26.06 12.04C26.7933 12.28 27.44 12.5733 28 12.92C28.5733 13.2533 29.02 13.6867 29.34 14.22C29.6733 14.74 29.84 15.4067 29.84 16.22C29.84 16.9667 29.6533 17.6467 29.28 18.26C28.9067 18.86 28.3667 19.34 27.66 19.7C26.9667 20.06 26.1267 20.24 25.14 20.24ZM36.4122 20V6H41.1522C42.2189 6 43.0989 6.18667 43.7922 6.56C44.4855 6.92 44.9989 7.42 45.3322 8.06C45.6655 8.7 45.8322 9.43333 45.8322 10.26C45.8322 11.0867 45.6655 11.82 45.3322 12.46C44.9989 13.1 44.4855 13.6067 43.7922 13.98C43.0989 14.34 42.2189 14.52 41.1522 14.52H38.5322V20H36.4122ZM38.5322 12.62H41.0522C41.9589 12.62 42.6189 12.4067 43.0322 11.98C43.4589 11.5533 43.6722 10.98 43.6722 10.26C43.6722 9.55333 43.4589 8.98667 43.0322 8.56C42.6189 8.12 41.9589 7.9 41.0522 7.9H38.5322V12.62ZM56.9844 20.24C55.851 20.24 54.871 19.9467 54.0444 19.36C53.2177 18.7733 52.5844 17.94 52.1444 16.86C51.7044 15.78 51.4844 14.4933 51.4844 13C51.4844 11.5067 51.7044 10.22 52.1444 9.14C52.5844 8.06 53.2177 7.22667 54.0444 6.64C54.871 6.05333 55.851 5.76 56.9844 5.76C58.131 5.76 59.111 6.05333 59.9244 6.64C60.751 7.22667 61.3844 8.06 61.8244 9.14C62.2644 10.22 62.4844 11.5067 62.4844 13C62.4844 14.4933 62.2644 15.78 61.8244 16.86C61.3844 17.94 60.751 18.7733 59.9244 19.36C59.111 19.9467 58.131 20.24 56.9844 20.24ZM56.9844 18.24C57.9844 18.24 58.791 17.7933 59.4044 16.9C60.0177 15.9933 60.3244 14.6933 60.3244 13C60.3244 11.3067 60.0177 10.0133 59.4044 9.12C58.791 8.21333 57.9844 7.76 56.9844 7.76C55.971 7.76 55.1577 8.21333 54.5444 9.12C53.9444 10.0133 53.6444 11.3067 53.6444 13C53.6444 14.6933 53.9444 15.9933 54.5444 16.9C55.1577 17.7933 55.971 18.24 56.9844 18.24ZM71.9166 20V7.9H68.1566V6H77.7966V7.9H74.0366V20H71.9166ZM89.1088 20.24C88.1221 20.24 87.2554 20.06 86.5088 19.7C85.7754 19.34 85.1954 18.8267 84.7688 18.16C84.3554 17.4933 84.1421 16.7 84.1288 15.78H86.3688C86.3821 16.4867 86.6221 17.0933 87.0888 17.6C87.5688 18.0933 88.2354 18.34 89.0888 18.34C89.8754 18.34 90.4888 18.16 90.9288 17.8C91.3688 17.4267 91.5888 16.9467 91.5888 16.36C91.5888 15.8667 91.4554 15.46 91.1888 15.14C90.9354 14.8067 90.5354 14.5133 89.9888 14.26C89.4421 13.9933 88.7354 13.72 87.8688 13.44C86.7088 13.0667 85.8554 12.5533 85.3088 11.9C84.7621 11.2333 84.4888 10.42 84.4888 9.46C84.4888 8.35333 84.8888 7.46 85.6888 6.78C86.4888 6.1 87.5888 5.76 88.9888 5.76C90.3488 5.76 91.4421 6.11333 92.2688 6.82C93.0954 7.51333 93.5221 8.48 93.5488 9.72H91.2888C91.2888 9.38667 91.1954 9.06667 91.0088 8.76C90.8221 8.44 90.5554 8.18 90.2088 7.98C89.8621 7.76667 89.4354 7.66 88.9288 7.66C88.3021 7.64667 87.7754 7.8 87.3488 8.12C86.9221 8.42667 86.7088 8.84667 86.7088 9.38C86.7088 10.0333 86.9688 10.5467 87.4888 10.92C88.0088 11.28 88.8554 11.6533 90.0288 12.04C90.7621 12.28 91.4088 12.5733 91.9688 12.92C92.5421 13.2533 92.9888 13.6867 93.3088 14.22C93.6421 14.74 93.8088 15.4067 93.8088 16.22C93.8088 16.9667 93.6221 17.6467 93.2487 18.26C92.8754 18.86 92.3354 19.34 91.6288 19.7C90.9354 20.06 90.0954 20.24 89.1088 20.24Z"/>
</mask>
<path d="M25.14 20.24C24.1533 20.24 23.2867 20.06 22.54 19.7C21.8067 19.34 21.2267 18.8267 20.8 18.16C20.3867 17.4933 20.1733 16.7 20.16 15.78H22.4C22.4133 16.4867 22.6533 17.0933 23.12 17.6C23.6 18.0933 24.2667 18.34 25.12 18.34C25.9067 18.34 26.52 18.16 26.96 17.8C27.4 17.4267 27.62 16.9467 27.62 16.36C27.62 15.8667 27.4867 15.46 27.22 15.14C26.9667 14.8067 26.5667 14.5133 26.02 14.26C25.4733 13.9933 24.7667 13.72 23.9 13.44C22.74 13.0667 21.8867 12.5533 21.34 11.9C20.7933 11.2333 20.52 10.42 20.52 9.46C20.52 8.35333 20.92 7.46 21.72 6.78C22.52 6.1 23.62 5.76 25.02 5.76C26.38 5.76 27.4733 6.11333 28.3 6.82C29.1267 7.51333 29.5533 8.48 29.58 9.72H27.32C27.32 9.38667 27.2267 9.06667 27.04 8.76C26.8533 8.44 26.5867 8.18 26.24 7.98C25.8933 7.76667 25.4667 7.66 24.96 7.66C24.3333 7.64667 23.8067 7.8 23.38 8.12C22.9533 8.42667 22.74 8.84667 22.74 9.38C22.74 10.0333 23 10.5467 23.52 10.92C24.04 11.28 24.8867 11.6533 26.06 12.04C26.7933 12.28 27.44 12.5733 28 12.92C28.5733 13.2533 29.02 13.6867 29.34 14.22C29.6733 14.74 29.84 15.4067 29.84 16.22C29.84 16.9667 29.6533 17.6467 29.28 18.26C28.9067 18.86 28.3667 19.34 27.66 19.7C26.9667 20.06 26.1267 20.24 25.14 20.24ZM36.4122 20V6H41.1522C42.2189 6 43.0989 6.18667 43.7922 6.56C44.4855 6.92 44.9989 7.42 45.3322 8.06C45.6655 8.7 45.8322 9.43333 45.8322 10.26C45.8322 11.0867 45.6655 11.82 45.3322 12.46C44.9989 13.1 44.4855 13.6067 43.7922 13.98C43.0989 14.34 42.2189 14.52 41.1522 14.52H38.5322V20H36.4122ZM38.5322 12.62H41.0522C41.9589 12.62 42.6189 12.4067 43.0322 11.98C43.4589 11.5533 43.6722 10.98 43.6722 10.26C43.6722 9.55333 43.4589 8.98667 43.0322 8.56C42.6189 8.12 41.9589 7.9 41.0522 7.9H38.5322V12.62ZM56.9844 20.24C55.851 20.24 54.871 19.9467 54.0444 19.36C53.2177 18.7733 52.5844 17.94 52.1444 16.86C51.7044 15.78 51.4844 14.4933 51.4844 13C51.4844 11.5067 51.7044 10.22 52.1444 9.14C52.5844 8.06 53.2177 7.22667 54.0444 6.64C54.871 6.05333 55.851 5.76 56.9844 5.76C58.131 5.76 59.111 6.05333 59.9244 6.64C60.751 7.22667 61.3844 8.06 61.8244 9.14C62.2644 10.22 62.4844 11.5067 62.4844 13C62.4844 14.4933 62.2644 15.78 61.8244 16.86C61.3844 17.94 60.751 18.7733 59.9244 19.36C59.111 19.9467 58.131 20.24 56.9844 20.24ZM56.9844 18.24C57.9844 18.24 58.791 17.7933 59.4044 16.9C60.0177 15.9933 60.3244 14.6933 60.3244 13C60.3244 11.3067 60.0177 10.0133 59.4044 9.12C58.791 8.21333 57.9844 7.76 56.9844 7.76C55.971 7.76 55.1577 8.21333 54.5444 9.12C53.9444 10.0133 53.6444 11.3067 53.6444 13C53.6444 14.6933 53.9444 15.9933 54.5444 16.9C55.1577 17.7933 55.971 18.24 56.9844 18.24ZM71.9166 20V7.9H68.1566V6H77.7966V7.9H74.0366V20H71.9166ZM89.1088 20.24C88.1221 20.24 87.2554 20.06 86.5088 19.7C85.7754 19.34 85.1954 18.8267 84.7688 18.16C84.3554 17.4933 84.1421 16.7 84.1288 15.78H86.3688C86.3821 16.4867 86.6221 17.0933 87.0888 17.6C87.5688 18.0933 88.2354 18.34 89.0888 18.34C89.8754 18.34 90.4888 18.16 90.9288 17.8C91.3688 17.4267 91.5888 16.9467 91.5888 16.36C91.5888 15.8667 91.4554 15.46 91.1888 15.14C90.9354 14.8067 90.5354 14.5133 89.9888 14.26C89.4421 13.9933 88.7354 13.72 87.8688 13.44C86.7088 13.0667 85.8554 12.5533 85.3088 11.9C84.7621 11.2333 84.4888 10.42 84.4888 9.46C84.4888 8.35333 84.8888 7.46 85.6888 6.78C86.4888 6.1 87.5888 5.76 88.9888 5.76C90.3488 5.76 91.4421 6.11333 92.2688 6.82C93.0954 7.51333 93.5221 8.48 93.5488 9.72H91.2888C91.2888 9.38667 91.1954 9.06667 91.0088 8.76C90.8221 8.44 90.5554 8.18 90.2088 7.98C89.8621 7.76667 89.4354 7.66 88.9288 7.66C88.3021 7.64667 87.7754 7.8 87.3488 8.12C86.9221 8.42667 86.7088 8.84667 86.7088 9.38C86.7088 10.0333 86.9688 10.5467 87.4888 10.92C88.0088 11.28 88.8554 11.6533 90.0288 12.04C90.7621 12.28 91.4088 12.5733 91.9688 12.92C92.5421 13.2533 92.9888 13.6867 93.3088 14.22C93.6421 14.74 93.8088 15.4067 93.8088 16.22C93.8088 16.9667 93.6221 17.6467 93.2487 18.26C92.8754 18.86 92.3354 19.34 91.6288 19.7C90.9354 20.06 90.0954 20.24 89.1088 20.24Z" fill="#212121"/>
<path d="M22.54 19.7L22.4519 19.8795L22.4531 19.8802L22.54 19.7ZM20.8 18.16L20.63 18.2654L20.6315 18.2678L20.8 18.16ZM20.16 15.78V15.58H19.9571L19.96 15.7829L20.16 15.78ZM22.4 15.78L22.6 15.7762L22.5963 15.58H22.4V15.78ZM23.12 17.6L22.9728 17.7355L22.9767 17.7395L23.12 17.6ZM26.96 17.8L27.0867 17.9548L27.0894 17.9525L26.96 17.8ZM27.22 15.14L27.0606 15.2611L27.0664 15.268L27.22 15.14ZM26.02 14.26L25.9323 14.4398L25.9359 14.4415L26.02 14.26ZM23.9 13.44L23.9615 13.2497L23.9613 13.2496L23.9 13.44ZM21.34 11.9L21.1853 12.0268L21.1866 12.0283L21.34 11.9ZM28.3 6.82L28.17 6.97203L28.1715 6.97324L28.3 6.82ZM29.58 9.72V9.92H29.7843L29.78 9.7157L29.58 9.72ZM27.32 9.72H27.12V9.92H27.32V9.72ZM27.04 8.76L26.8672 8.86079L26.8692 8.86399L27.04 8.76ZM26.24 7.98L26.1351 8.1504L26.1401 8.15324L26.24 7.98ZM24.96 7.66L24.9557 7.86H24.96V7.66ZM23.38 8.12L23.4968 8.28244L23.5 8.28L23.38 8.12ZM23.52 10.92L23.4033 11.0825L23.4062 11.0844L23.52 10.92ZM26.06 12.04L25.9974 12.23L25.9978 12.2301L26.06 12.04ZM28 12.92L27.8947 13.0901L27.8995 13.0929L28 12.92ZM29.34 14.22L29.1684 14.3229L29.1716 14.3279L29.34 14.22ZM29.28 18.26L29.4498 18.3657L29.4508 18.364L29.28 18.26ZM27.66 19.7L27.5692 19.5218L27.5678 19.5225L27.66 19.7ZM25.14 20.04C24.1777 20.04 23.3418 19.8645 22.6269 19.5198L22.4531 19.8802C23.2316 20.2555 24.1289 20.44 25.14 20.44V20.04ZM22.6281 19.5205C21.9265 19.176 21.3748 18.687 20.9685 18.0522L20.6315 18.2678C21.0786 18.9663 21.6868 19.504 22.4519 19.8795L22.6281 19.5205ZM20.97 18.0546C20.5788 17.4237 20.3729 16.6672 20.36 15.7771L19.96 15.7829C19.9738 16.7328 20.1945 17.5629 20.63 18.2654L20.97 18.0546ZM20.16 15.98H22.4V15.58H20.16V15.98ZM22.2 15.7838C22.2143 16.5379 22.4722 17.1918 22.9729 17.7355L23.2671 17.4645C22.8345 16.9948 22.6124 16.4354 22.6 15.7762L22.2 15.7838ZM22.9767 17.7395C23.5029 18.2804 24.2264 18.54 25.12 18.54V18.14C24.3069 18.14 23.6971 17.9063 23.2633 17.4605L22.9767 17.7395ZM25.12 18.54C25.9353 18.54 26.5994 18.3535 27.0866 17.9548L26.8334 17.6452C26.4406 17.9665 25.878 18.14 25.12 18.14V18.54ZM27.0894 17.9525C27.575 17.5404 27.82 17.0043 27.82 16.36H27.42C27.42 16.8891 27.225 17.3129 26.8306 17.6475L27.0894 17.9525ZM27.82 16.36C27.82 15.8289 27.6756 15.3743 27.3736 15.012L27.0664 15.268C27.2978 15.5457 27.42 15.9044 27.42 16.36H27.82ZM27.3792 15.019C27.0994 14.6508 26.6682 14.34 26.1041 14.0785L25.9359 14.4415C26.4651 14.6867 26.8339 14.9626 27.0608 15.261L27.3792 15.019ZM26.1077 14.0802C25.5495 13.808 24.8332 13.5313 23.9615 13.2497L23.8385 13.6303C24.7002 13.9087 25.3972 14.1787 25.9323 14.4398L26.1077 14.0802ZM23.9613 13.2496C22.8225 12.8831 22.0075 12.3861 21.4934 11.7717L21.1866 12.0283C21.7658 12.7206 22.6575 13.2502 23.8387 13.6304L23.9613 13.2496ZM21.4947 11.7732C20.9807 11.1464 20.72 10.3793 20.72 9.46H20.32C20.32 10.4607 20.606 11.3203 21.1853 12.0268L21.4947 11.7732ZM20.72 9.46C20.72 8.40839 21.0969 7.5721 21.8495 6.93239L21.5905 6.62761C20.7431 7.3479 20.32 8.29828 20.32 9.46H20.72ZM21.8495 6.93239C22.6028 6.29209 23.6515 5.96 25.02 5.96V5.56C23.5885 5.56 22.4372 5.90791 21.5905 6.62761L21.8495 6.93239ZM25.02 5.96C26.3447 5.96 27.388 6.30348 28.17 6.97202L28.43 6.66797C27.5587 5.92318 26.4153 5.56 25.02 5.56V5.96ZM28.1715 6.97324C28.9472 7.62381 29.3544 8.53237 29.38 9.7243L29.78 9.7157C29.7523 8.42763 29.3062 7.40286 28.4285 6.66676L28.1715 6.97324ZM29.58 9.52H27.32V9.92H29.58V9.52ZM27.52 9.72C27.52 9.34716 27.4151 8.9915 27.2108 8.65601L26.8692 8.86399C27.0383 9.14183 27.12 9.42617 27.12 9.72H27.52ZM27.2128 8.65923C27.0071 8.30675 26.7143 8.02272 26.3399 7.80676L26.1401 8.15324C26.4591 8.33728 26.6995 8.57325 26.8672 8.86077L27.2128 8.65923ZM26.3448 7.80967C25.9597 7.5727 25.4947 7.46 24.96 7.46V7.86C25.4387 7.86 25.8269 7.96063 26.1352 8.15033L26.3448 7.80967ZM24.9643 7.46004C24.301 7.44593 23.7285 7.60864 23.26 7.96L23.5 8.28C23.8849 7.99135 24.3656 7.8474 24.9557 7.85995L24.9643 7.46004ZM23.2633 7.9576C22.7834 8.3025 22.54 8.78343 22.54 9.38H22.94C22.94 8.9099 23.1233 8.55083 23.4967 8.2824L23.2633 7.9576ZM22.54 9.38C22.54 10.0962 22.8298 10.6707 23.4034 11.0825L23.6366 10.7575C23.1702 10.4227 22.94 9.97049 22.94 9.38H22.54ZM23.4062 11.0844C23.9506 11.4614 24.8197 11.8418 25.9974 12.23L26.1226 11.85C24.9536 11.4648 24.1294 11.0986 23.6338 10.7556L23.4062 11.0844ZM25.9978 12.2301C26.7185 12.466 27.3503 12.753 27.8947 13.0901L28.1053 12.7499C27.5297 12.3936 26.8681 12.094 26.1222 11.8499L25.9978 12.2301ZM27.8995 13.0929C28.4456 13.4104 28.867 13.8204 29.1685 14.3229L29.5115 14.1171C29.173 13.5529 28.701 13.0962 28.1005 12.7471L27.8995 13.0929ZM29.1716 14.3279C29.4787 14.807 29.64 15.433 29.64 16.22H30.04C30.04 15.3803 29.868 14.673 29.5084 14.1121L29.1716 14.3279ZM29.64 16.22C29.64 16.9315 29.4626 17.5753 29.1092 18.156L29.4508 18.364C29.844 17.718 30.04 17.0018 30.04 16.22H29.64ZM29.1102 18.1543C28.7584 18.7198 28.2475 19.1763 27.5692 19.5218L27.7508 19.8782C28.4858 19.5037 29.055 19.0002 29.4498 18.3657L29.1102 18.1543ZM27.5678 19.5225C26.9095 19.8643 26.1028 20.04 25.14 20.04V20.44C26.1505 20.44 27.0239 20.2557 27.7522 19.8775L27.5678 19.5225ZM36.4122 20H36.2122V20.2H36.4122V20ZM36.4122 6V5.8H36.2122V6H36.4122ZM43.7922 6.56L43.6974 6.73611L43.7 6.7375L43.7922 6.56ZM45.3322 8.06L45.1548 8.15239L45.3322 8.06ZM45.3322 12.46L45.1548 12.3676L45.3322 12.46ZM43.7922 13.98L43.8844 14.1575L43.887 14.1561L43.7922 13.98ZM38.5322 14.52V14.32H38.3322V14.52H38.5322ZM38.5322 20V20.2H38.7322V20H38.5322ZM38.5322 12.62H38.3322V12.82H38.5322V12.62ZM43.0322 11.98L42.8907 11.8386L42.8885 11.8408L43.0322 11.98ZM43.0322 8.56L42.8863 8.697L42.8908 8.70142L43.0322 8.56ZM38.5322 7.9V7.7H38.3322V7.9H38.5322ZM36.6122 20V6H36.2122V20H36.6122ZM36.4122 6.2H41.1522V5.8H36.4122V6.2ZM41.1522 6.2C42.197 6.2 43.0417 6.38303 43.6974 6.73609L43.887 6.3839C43.156 5.99031 42.2407 5.8 41.1522 5.8V6.2ZM43.7 6.7375C44.3601 7.0802 44.842 7.55188 45.1548 8.15239L45.5096 7.96761C45.1557 7.28811 44.611 6.75979 43.8844 6.3825L43.7 6.7375ZM45.1548 8.15239C45.4712 8.75995 45.6322 9.46078 45.6322 10.26H46.0322C46.0322 9.40588 45.8598 8.64005 45.5096 7.96761L45.1548 8.15239ZM45.6322 10.26C45.6322 11.0592 45.4712 11.76 45.1548 12.3676L45.5096 12.5524C45.8598 11.88 46.0322 11.1141 46.0322 10.26H45.6322ZM45.1548 12.3676C44.8417 12.9688 44.3588 13.4478 43.6974 13.8039L43.887 14.1561C44.6123 13.7656 45.156 13.2312 45.5096 12.5524L45.1548 12.3676ZM43.7 13.8025C43.0436 14.1433 42.1979 14.32 41.1522 14.32V14.72C42.2398 14.72 43.1541 14.5367 43.8844 14.1575L43.7 13.8025ZM41.1522 14.32H38.5322V14.72H41.1522V14.32ZM38.3322 14.52V20H38.7322V14.52H38.3322ZM38.5322 19.8H36.4122V20.2H38.5322V19.8ZM38.5322 12.82H41.0522V12.42H38.5322V12.82ZM41.0522 12.82C41.9849 12.82 42.709 12.6011 43.1758 12.1192L42.8885 11.8408C42.5287 12.2122 41.9328 12.42 41.0522 12.42V12.82ZM43.1736 12.1214C43.6449 11.6501 43.8722 11.0221 43.8722 10.26H43.4722C43.4722 10.9379 43.2728 11.4565 42.8908 11.8386L43.1736 12.1214ZM43.8722 10.26C43.8722 9.51008 43.6442 8.88915 43.1736 8.41858L42.8908 8.70142C43.2735 9.08418 43.4722 9.59659 43.4722 10.26H43.8722ZM43.178 8.42306C42.7113 7.92635 41.9864 7.7 41.0522 7.7V8.1C41.9313 8.1 42.5264 8.31365 42.8864 8.69693L43.178 8.42306ZM41.0522 7.7H38.5322V8.1H41.0522V7.7ZM38.3322 7.9V12.62H38.7322V7.9H38.3322ZM54.0444 19.36L54.1601 19.1969L54.0444 19.36ZM52.1444 16.86L51.9592 16.9355L52.1444 16.86ZM52.1444 9.14L51.9592 9.06454L52.1444 9.14ZM54.0444 6.64L53.9286 6.4769L54.0444 6.64ZM59.9244 6.64L59.8074 6.80221L59.8086 6.8031L59.9244 6.64ZM61.8244 9.14L62.0096 9.06454L61.8244 9.14ZM61.8244 16.86L62.0096 16.9355L61.8244 16.86ZM59.9244 19.36L59.8086 19.1969L59.8074 19.1978L59.9244 19.36ZM59.4044 16.9L59.5693 17.0132L59.57 17.0121L59.4044 16.9ZM59.4044 9.12L59.2387 9.23206L59.2395 9.2332L59.4044 9.12ZM54.5444 9.12L54.3787 9.00794L54.3783 9.00849L54.5444 9.12ZM54.5444 16.9L54.3776 17.0104L54.3795 17.0132L54.5444 16.9ZM56.9844 20.04C55.8874 20.04 54.949 19.7568 54.1601 19.1969L53.9286 19.5231C54.7931 20.1366 55.8147 20.44 56.9844 20.44V20.04ZM54.1601 19.1969C53.3689 18.6354 52.7575 17.8347 52.3296 16.7845L51.9592 16.9355C52.4113 18.0453 53.0665 18.9113 53.9286 19.5231L54.1601 19.1969ZM52.3296 16.7845C51.9017 15.7342 51.6844 14.4744 51.6844 13H51.2844C51.2844 14.5123 51.5071 15.8258 51.9592 16.9355L52.3296 16.7845ZM51.6844 13C51.6844 11.5256 51.9017 10.2658 52.3296 9.21546L51.9592 9.06454C51.5071 10.1742 51.2844 11.4877 51.2844 13H51.6844ZM52.3296 9.21546C52.7575 8.16526 53.3689 7.36459 54.1601 6.8031L53.9286 6.4769C53.0665 7.08874 52.4113 7.95474 51.9592 9.06454L52.3296 9.21546ZM54.1601 6.8031C54.949 6.24324 55.8874 5.96 56.9844 5.96V5.56C55.8147 5.56 54.7931 5.86343 53.9286 6.4769L54.1601 6.8031ZM56.9844 5.96C58.0953 5.96 59.0329 6.24353 59.8074 6.80221L60.0414 6.47779C59.1892 5.86313 58.1668 5.56 56.9844 5.56V5.96ZM59.8086 6.8031C60.5998 7.36459 61.2113 8.16526 61.6392 9.21546L62.0096 9.06454C61.5575 7.95474 60.9023 7.08874 60.0401 6.4769L59.8086 6.8031ZM61.6392 9.21546C62.0671 10.2658 62.2844 11.5256 62.2844 13H62.6844C62.6844 11.4877 62.4617 10.1742 62.0096 9.06454L61.6392 9.21546ZM62.2844 13C62.2844 14.4744 62.0671 15.7342 61.6392 16.7845L62.0096 16.9355C62.4617 15.8258 62.6844 14.5123 62.6844 13H62.2844ZM61.6392 16.7845C61.2113 17.8347 60.5998 18.6354 59.8086 19.1969L60.0401 19.5231C60.9023 18.9113 61.5575 18.0453 62.0096 16.9355L61.6392 16.7845ZM59.8074 19.1978C59.0329 19.7565 58.0953 20.04 56.9844 20.04V20.44C58.1668 20.44 59.1892 20.1369 60.0414 19.5222L59.8074 19.1978ZM56.9844 18.44C58.0565 18.44 58.9223 17.9555 59.5693 17.0132L59.2395 16.7868C58.6598 17.6312 57.9122 18.04 56.9844 18.04V18.44ZM59.57 17.0121C60.2149 16.0588 60.5244 14.713 60.5244 13H60.1244C60.1244 14.6737 59.8205 15.9279 59.2387 16.7879L59.57 17.0121ZM60.5244 13C60.5244 11.2873 60.215 9.94738 59.5693 9.0068L59.2395 9.2332C59.8204 10.0793 60.1244 11.326 60.1244 13H60.5244ZM59.57 9.00794C58.9236 8.05241 58.0578 7.56 56.9844 7.56V7.96C57.9109 7.96 58.6584 8.37426 59.2387 9.23206L59.57 9.00794ZM56.9844 7.56C55.8986 7.56 55.0257 8.0515 54.3787 9.00794L54.71 9.23206C55.2897 8.37517 56.0435 7.96 56.9844 7.96V7.56ZM54.3783 9.00849C53.7468 9.94872 53.4444 11.2879 53.4444 13H53.8444C53.8444 11.3254 54.1419 10.0779 54.7104 9.23151L54.3783 9.00849ZM53.4444 13C53.4444 14.7124 53.747 16.0574 54.3776 17.0104L54.7112 16.7896C54.1418 15.9292 53.8444 14.6743 53.8444 13H53.4444ZM54.3795 17.0132C55.0271 17.9564 55.8999 18.44 56.9844 18.44V18.04C56.0422 18.04 55.2883 17.6303 54.7093 16.7868L54.3795 17.0132ZM71.9166 20H71.7166V20.2H71.9166V20ZM71.9166 7.9H72.1166V7.7H71.9166V7.9ZM68.1566 7.9H67.9566V8.1H68.1566V7.9ZM68.1566 6V5.8H67.9566V6H68.1566ZM77.7966 6H77.9966V5.8H77.7966V6ZM77.7966 7.9V8.1H77.9966V7.9H77.7966ZM74.0366 7.9V7.7H73.8366V7.9H74.0366ZM74.0366 20V20.2H74.2366V20H74.0366ZM72.1166 20V7.9H71.7166V20H72.1166ZM71.9166 7.7H68.1566V8.1H71.9166V7.7ZM68.3566 7.9V6H67.9566V7.9H68.3566ZM68.1566 6.2H77.7966V5.8H68.1566V6.2ZM77.5966 6V7.9H77.9966V6H77.5966ZM77.7966 7.7H74.0366V8.1H77.7966V7.7ZM73.8366 7.9V20H74.2366V7.9H73.8366ZM74.0366 19.8H71.9166V20.2H74.0366V19.8ZM86.5088 19.7L86.4206 19.8795L86.4219 19.8802L86.5088 19.7ZM84.7688 18.16L84.5988 18.2654L84.6003 18.2678L84.7688 18.16ZM84.1288 15.78V15.58H83.9258L83.9288 15.7829L84.1288 15.78ZM86.3688 15.78L86.5687 15.7762L86.565 15.58H86.3688V15.78ZM87.0888 17.6L86.9416 17.7355L86.9454 17.7395L87.0888 17.6ZM90.9287 17.8L91.0554 17.9548L91.0581 17.9525L90.9287 17.8ZM91.1888 15.14L91.0294 15.2611L91.0351 15.268L91.1888 15.14ZM89.9887 14.26L89.901 14.4398L89.9047 14.4415L89.9887 14.26ZM87.8688 13.44L87.9302 13.2497L87.93 13.2496L87.8688 13.44ZM85.3087 11.9L85.1541 12.0268L85.1554 12.0283L85.3087 11.9ZM92.2688 6.82L92.1388 6.97203L92.1402 6.97324L92.2688 6.82ZM93.5488 9.72V9.92H93.7531L93.7487 9.7157L93.5488 9.72ZM91.2887 9.72H91.0888V9.92H91.2887V9.72ZM91.0088 8.76L90.836 8.86079L90.8379 8.86399L91.0088 8.76ZM90.2087 7.98L90.1039 8.1504L90.1088 8.15324L90.2087 7.98ZM88.9287 7.66L88.9245 7.86H88.9287V7.66ZM87.3487 8.12L87.4655 8.28244L87.4688 8.28L87.3487 8.12ZM87.4887 10.92L87.3721 11.0825L87.3749 11.0844L87.4887 10.92ZM90.0287 12.04L89.9662 12.23L89.9665 12.2301L90.0287 12.04ZM91.9688 12.92L91.8634 13.0901L91.8682 13.0929L91.9688 12.92ZM93.3088 14.22L93.1372 14.3229L93.1404 14.3279L93.3088 14.22ZM93.2487 18.26L93.4186 18.3657L93.4196 18.364L93.2487 18.26ZM91.6288 19.7L91.538 19.5218L91.5366 19.5225L91.6288 19.7ZM89.1087 20.04C88.1465 20.04 87.3105 19.8645 86.5956 19.5198L86.4219 19.8802C87.2003 20.2555 88.0977 20.44 89.1087 20.44V20.04ZM86.5969 19.5205C85.8953 19.176 85.3435 18.687 84.9372 18.0522L84.6003 18.2678C85.0473 18.9663 85.6556 19.504 86.4206 19.8795L86.5969 19.5205ZM84.9387 18.0546C84.5476 17.4237 84.3416 16.6672 84.3287 15.7771L83.9288 15.7829C83.9425 16.7328 84.1632 17.5629 84.5988 18.2654L84.9387 18.0546ZM84.1288 15.98H86.3688V15.58H84.1288V15.98ZM86.1688 15.7838C86.183 16.5379 86.4409 17.1918 86.9416 17.7355L87.2359 17.4645C86.8033 16.9948 86.5812 16.4354 86.5687 15.7762L86.1688 15.7838ZM86.9454 17.7395C87.4717 18.2804 88.1952 18.54 89.0888 18.54V18.14C88.2756 18.14 87.6658 17.9063 87.2321 17.4605L86.9454 17.7395ZM89.0888 18.54C89.904 18.54 90.5681 18.3535 91.0554 17.9548L90.8021 17.6452C90.4094 17.9665 89.8468 18.14 89.0888 18.14V18.54ZM91.0581 17.9525C91.5438 17.5404 91.7887 17.0043 91.7887 16.36H91.3887C91.3887 16.8891 91.1937 17.3129 90.7994 17.6475L91.0581 17.9525ZM91.7887 16.36C91.7887 15.8289 91.6443 15.3743 91.3424 15.012L91.0351 15.268C91.2665 15.5457 91.3887 15.9044 91.3887 16.36H91.7887ZM91.348 15.019C91.0681 14.6508 90.637 14.34 90.0728 14.0785L89.9047 14.4415C90.4339 14.6867 90.8027 14.9626 91.0295 15.261L91.348 15.019ZM90.0764 14.0802C89.5182 13.808 88.8019 13.5313 87.9302 13.2497L87.8073 13.6303C88.6689 13.9087 89.3659 14.1787 89.9011 14.4398L90.0764 14.0802ZM87.93 13.2496C86.7913 12.8831 85.9763 12.3861 85.4621 11.7717L85.1554 12.0283C85.7346 12.7206 86.6262 13.2502 87.8075 13.6304L87.93 13.2496ZM85.4634 11.7732C84.9494 11.1464 84.6888 10.3793 84.6888 9.46H84.2887C84.2887 10.4607 84.5748 11.3203 85.1541 12.0268L85.4634 11.7732ZM84.6888 9.46C84.6888 8.40839 85.0657 7.5721 85.8183 6.93239L85.5592 6.62761C84.7118 7.3479 84.2887 8.29828 84.2887 9.46H84.6888ZM85.8183 6.93239C86.5716 6.29209 87.6202 5.96 88.9888 5.96V5.56C87.5573 5.56 86.4059 5.90791 85.5592 6.62761L85.8183 6.93239ZM88.9888 5.96C90.3134 5.96 91.3567 6.30348 92.1388 6.97202L92.3987 6.66797C91.5274 5.92318 90.3841 5.56 88.9888 5.56V5.96ZM92.1402 6.97324C92.9159 7.62381 93.3232 8.53237 93.3488 9.7243L93.7487 9.7157C93.721 8.42763 93.2749 7.40286 92.3973 6.66676L92.1402 6.97324ZM93.5488 9.52H91.2887V9.92H93.5488V9.52ZM91.4887 9.72C91.4887 9.34716 91.3838 8.9915 91.1796 8.65601L90.8379 8.86399C91.007 9.14183 91.0888 9.42617 91.0888 9.72H91.4887ZM91.1815 8.65923C90.9759 8.30675 90.683 8.02272 90.3087 7.80676L90.1088 8.15324C90.4278 8.33728 90.6683 8.57325 90.836 8.86077L91.1815 8.65923ZM90.3136 7.80967C89.9285 7.5727 89.4634 7.46 88.9287 7.46V7.86C89.4074 7.86 89.7957 7.96063 90.1039 8.15033L90.3136 7.80967ZM88.933 7.46004C88.2698 7.44593 87.6972 7.60864 87.2288 7.96L87.4688 8.28C87.8536 7.99135 88.3344 7.8474 88.9245 7.85995L88.933 7.46004ZM87.232 7.9576C86.7522 8.3025 86.5088 8.78343 86.5088 9.38H86.9088C86.9088 8.9099 87.092 8.55083 87.4655 8.2824L87.232 7.9576ZM86.5088 9.38C86.5088 10.0962 86.7985 10.6707 87.3721 11.0825L87.6054 10.7575C87.139 10.4227 86.9088 9.97049 86.9088 9.38H86.5088ZM87.3749 11.0844C87.9193 11.4614 88.7885 11.8418 89.9662 12.23L90.0913 11.85C88.9224 11.4648 88.0982 11.0986 87.6026 10.7556L87.3749 11.0844ZM89.9665 12.2301C90.6873 12.466 91.3191 12.753 91.8635 13.0901L92.074 12.7499C91.4984 12.3936 90.8369 12.094 90.091 11.8499L89.9665 12.2301ZM91.8682 13.0929C92.4144 13.4104 92.8358 13.8204 93.1373 14.3229L93.4802 14.1171C93.1417 13.5529 92.6698 13.0962 92.0693 12.7471L91.8682 13.0929ZM93.1404 14.3279C93.4475 14.807 93.6087 15.433 93.6087 16.22H94.0088C94.0088 15.3803 93.8367 14.673 93.4771 14.1121L93.1404 14.3279ZM93.6087 16.22C93.6087 16.9315 93.4314 17.5753 93.0779 18.156L93.4196 18.364C93.8128 17.718 94.0088 17.0018 94.0088 16.22H93.6087ZM93.0789 18.1543C92.7271 18.7198 92.2162 19.1763 91.538 19.5218L91.7195 19.8782C92.4546 19.5037 93.0237 19.0002 93.4186 18.3657L93.0789 18.1543ZM91.5366 19.5225C90.8782 19.8643 90.0716 20.04 89.1087 20.04V20.44C90.1193 20.44 90.9926 20.2557 91.7209 19.8775L91.5366 19.5225Z" fill="#212121" mask="url(#path-1-outside-1_2_71)"/>
<path d="M6 4L6 12" stroke="#212121" stroke-width="2.5"/>
<path d="M1 9L6 13L11 9" stroke="#212121" stroke-width="2.5" stroke-linejoin="bevel"/>
<circle cx="6" cy="18" r="2" fill="#212121"/>
</svg>
