<svg width="22" height="20" viewBox="0 0 22 20" fill="none" xmlns="http://www.w3.org/2000/svg">
<path opacity="0.5" d="M19.8475 10.4357L11 19.2793L2.1525 10.4357C2.15199 10.4352 2.15148 10.4347 2.15097 10.4342C0.190257 8.43677 -0.277687 4.65139 2.15066 2.2055C3.62044 0.725088 5.28922 0.329464 6.80532 0.561789C8.34151 0.797193 9.73854 1.68164 10.6063 2.7899L11 3.29267L11.3937 2.7899C12.2615 1.68164 13.6585 0.797193 15.1947 0.561789C16.7108 0.329464 18.3796 0.725087 19.8493 2.2055C22.2777 4.65138 21.8097 8.43674 19.8491 10.4341C19.8485 10.4347 19.848 10.4352 19.8475 10.4357Z" fill="#FF6565" stroke="#FF6565"/>
</svg>
